<svg xmlns="http://www.w3.org/2000/svg" version="1.1" xmlns:xlink="http://www.w3.org/1999/xlink" viewBox="0 0 200 200"><rect width="200" height="200" fill="url('#gradient')"></rect><defs><linearGradient id="gradient" gradientTransform="rotate(321 0.5 0.5)"><stop offset="0%" stop-color="#1d425b"></stop><stop offset="100%" stop-color="#000000"></stop></linearGradient></defs><g><g fill="#1d425b" transform="matrix(5.43877249926232,0,0,5.43877249926232,4.166761404189714,138.12751286921159)" stroke="#adadad" stroke-width="0.55"><path d="M6.85 0L1.07 0L1.07-14.22L6.18-14.22Q8.93-14.22 10.36-13.21Q11.79-12.21 11.79-10.29L11.79-10.29Q11.79-9.19 11.28-8.41Q10.77-7.63 9.79-7.26L9.79-7.26Q10.90-6.96 11.49-6.16Q12.09-5.36 12.09-4.21L12.09-4.21Q12.09-2.12 10.77-1.07Q9.44-0.02 6.85 0L6.85 0ZM6.90-6.04L4.50-6.04L4.50-2.64L6.75-2.64Q7.68-2.64 8.17-3.06Q8.67-3.49 8.67-4.26L8.67-4.26Q8.67-6.04 6.90-6.04L6.90-6.04ZM4.50-11.57L4.50-8.29L6.29-8.29Q7.41-8.30 7.89-8.70Q8.37-9.10 8.37-9.88L8.37-9.88Q8.37-10.78 7.85-11.18Q7.33-11.57 6.18-11.57L6.18-11.57L4.50-11.57ZM18.94 0.20L18.94 0.20Q16.50 0.20 15-1.25Q13.50-2.71 13.50-5.03L13.50-5.03L13.50-5.30Q13.50-6.92 14.10-8.16Q14.70-9.40 15.85-10.08Q17.00-10.76 18.58-10.76L18.58-10.76Q20.81-10.76 22.10-9.38Q23.39-8.00 23.39-5.53L23.39-5.53L23.39-4.25L16.85-4.25Q17.02-3.36 17.62-2.85Q18.21-2.34 19.16-2.34L19.16-2.34Q20.72-2.34 21.60-3.44L21.60-3.44L23.11-1.66Q22.49-0.81 21.36-0.31Q20.23 0.20 18.94 0.20ZM18.56-8.22L18.56-8.22Q17.12-8.22 16.85-6.31L16.85-6.31L20.17-6.31L20.17-6.56Q20.19-7.35 19.77-7.79Q19.35-8.22 18.56-8.22ZM24.65-10.57L27.73-10.57L27.84-9.33Q28.94-10.76 30.86-10.76L30.86-10.76Q32.51-10.76 33.33-9.78Q34.14-8.79 34.17-6.81L34.17-6.81L34.17 0L30.87 0L30.87-6.67Q30.87-7.47 30.55-7.85Q30.22-8.22 29.38-8.22L29.38-8.22Q28.41-8.22 27.94-7.46L27.94-7.46L27.94 0L24.65 0L24.65-10.57Z"></path></g></g></svg>